<?xml version="1.0" encoding="utf-8"?>
<!-- Generator: Adobe Illustrator 20.1.0, SVG Export Plug-In . SVG Version: 6.00 Build 0)  -->
<svg version="1.1" id="Laag_1" xmlns="http://www.w3.org/2000/svg" xmlns:xlink="http://www.w3.org/1999/xlink" x="0px" y="0px"
	 viewBox="0 0 100 100" style="enable-background:new 0 0 100 100;" xml:space="preserve">
<style type="text/css">
	.st0{fill:#24597C;}
	.st1{fill:#FFFFFF;}
</style>
<g>
	<polygon class="st1" points="50,74.1 23.7,87.9 28.7,58.6 7.4,37.9 36.8,33.6 50,7 63.2,33.6 92.6,37.9 71.3,58.6 76.3,87.9 	"/>
	<path class="st0" d="M50,10.3l11.5,23.3l0.7,1.4l1.5,0.2l25.7,3.7L70.8,57.1l-1.1,1.1l0.3,1.5l4.4,25.6l-23-12.1L50,72.5l-1.4,0.7
		l-23,12.1L30,59.7l0.3-1.5l-1.1-1.1L10.6,38.9l25.7-3.7l1.5-0.2l0.7-1.4L50,10.3 M50,3.7L35.9,32.3L4.3,36.9l22.9,22.3l-5.4,31.5
		L50,75.8l28.3,14.9l-5.4-31.5l22.9-22.3l-31.6-4.6L50,3.7L50,3.7z"/>
</g>
</svg>
